# xmcd
#
# Track frame offsets: 
#        150
#        29240
#        56153
#        81773
#        109849
#        139214
#        164537
#        183693
#        210258
#
# Disc length: 3028 seconds
#
# Revision: 1
# Processed by: cddbd v1.5.2PL0 Copyright (c) Steve Scherf et al.
# Submitted via: ExactAudioCopyFreeDBPlugin 1.0
#
DISCID=850bd209
DTITLE=John McLaughlin - Black Light
DYEAR=2015
DGENRE=Jazz
TTITLE0=Here Come The Jiis
TTITLE1=Clap Your Hand
TTITLE2=Being You Being Me
TTITLE3=Pandit Ji
TTITLE4=360 Flip
TTITLE5=El Hombre Que Sabia
TTITLE6=Gaza City
TTITLE7=Kiki
TTITLE8=Nothing To Lose But The Blues
EXTD=YEAR: 2015
EXTT0=
EXTT1=
EXTT2=
EXTT3=
EXTT4=
EXTT5=
EXTT6=
EXTT7=
EXTT8=
PLAYORDER=
